REM DIRINDEX 1\2\4\8,1\2\4\9,1\2\4\10,1\2\5\11,1\2\5\12,1\2\5\13,1\2\5\14,1\2\5\15,1\3\6\16,1\3\6\17,1\3\6\18,1\3\7\19,1\3\7\20,1\3\7\21,1\3\7\22,1\3\7\23
REM DIRNAME "folder01","folder02","folder03","folder04","folder05","folder06","folder07","folder08","folder09","folder10","folder11","folder12","folder13","folder14","folder15","folder16","folder17","folder18","folder19","folder20","folder21","folder22","folder23"
TITLE ""
FILE "LR_black_phrase_C04.mp3" MP3
  TRACK 01 AUDIO
    TITLE "0:"
    INDEX 01 00:00:00
  TRACK 02 AUDIO
    TITLE "19:cjc171_14301"
    INDEX 01 00:00:14
  TRACK 03 AUDIO
    TITLE "0:"
    INDEX 01 00:01:35
  TRACK 04 AUDIO
    TITLE "20:cjc171_14302"
    INDEX 01 00:01:70
  TRACK 05 AUDIO
    TITLE "0:"
    INDEX 01 00:04:04
  TRACK 06 AUDIO
    TITLE "21:cjc171_14303"
    INDEX 01 00:05:04
  TRACK 07 AUDIO
    TITLE "0:"
    INDEX 01 00:06:54
  TRACK 08 AUDIO
    TITLE "22:cjc171_14304"
    INDEX 01 00:07:22
  TRACK 09 AUDIO
    TITLE "0:"
    INDEX 01 00:09:27
  TRACK 10 AUDIO
    TITLE "23:cjc171_14305"
    INDEX 01 00:09:58
  TRACK 11 AUDIO
    TITLE "0:"
    INDEX 01 00:11:65
  TRACK 12 AUDIO
    TITLE "19:cjc171_14306"
    INDEX 01 00:12:72
  TRACK 13 AUDIO
    TITLE "0:"
    INDEX 01 00:14:28
  TRACK 14 AUDIO
    TITLE "20:cjc171_14307"
    INDEX 01 00:14:67
  TRACK 15 AUDIO
    TITLE "0:"
    INDEX 01 00:16:13
  TRACK 16 AUDIO
    TITLE "21:cjc171_14308"
    INDEX 01 00:17:13
  TRACK 17 AUDIO
    TITLE "0:"
    INDEX 01 00:18:73
  TRACK 18 AUDIO
    TITLE "22:cjc171_14309"
    INDEX 01 00:19:37
  TRACK 19 AUDIO
    TITLE "0:"
    INDEX 01 00:21:40
  TRACK 20 AUDIO
    TITLE "23:cjc171_14310"
    INDEX 01 00:21:67
  TRACK 21 AUDIO
    TITLE "0:"
    INDEX 01 00:23:70
  TRACK 22 AUDIO
    TITLE "19:cjc171_14311"
    INDEX 01 00:24:68
  TRACK 23 AUDIO
    TITLE "0:"
    INDEX 01 00:26:06
  TRACK 24 AUDIO
    TITLE "20:cjc171_14312"
    INDEX 01 00:26:39
  TRACK 25 AUDIO
    TITLE "0:"
    INDEX 01 00:27:58
  TRACK 26 AUDIO
    TITLE "21:cjc171_14313"
    INDEX 01 00:28:54
  TRACK 27 AUDIO
    TITLE "0:"
    INDEX 01 00:31:15
  TRACK 28 AUDIO
    TITLE "22:cjc171_14314"
    INDEX 01 00:31:50
  TRACK 29 AUDIO
    TITLE "0:"
    INDEX 01 00:33:47
  TRACK 30 AUDIO
    TITLE "23:cjc171_14315"
    INDEX 01 00:33:67
  TRACK 31 AUDIO
    TITLE "0:"
    INDEX 01 00:35:65
  TRACK 32 AUDIO
    TITLE "19:cjc171_14316"
    INDEX 01 00:36:59
  TRACK 33 AUDIO
    TITLE "0:"
    INDEX 01 00:38:15
  TRACK 34 AUDIO
    TITLE "20:cjc171_14317"
    INDEX 01 00:38:52
  TRACK 35 AUDIO
    TITLE "0:"
    INDEX 01 00:42:03
  TRACK 36 AUDIO
    TITLE "21:cjc171_14318"
    INDEX 01 00:43:02
  TRACK 37 AUDIO
    TITLE "0:"
    INDEX 01 00:45:50
  TRACK 38 AUDIO
    TITLE "22:cjc171_14319"
    INDEX 01 00:46:18
  TRACK 39 AUDIO
    TITLE "0:"
    INDEX 01 00:48:21
  TRACK 40 AUDIO
    TITLE "23:cjc171_14320"
    INDEX 01 00:48:47
  TRACK 41 AUDIO
    TITLE "0:"
    INDEX 01 00:50:51
  TRACK 42 AUDIO
    TITLE "19:cjc171_14321"
    INDEX 01 00:51:49
  TRACK 43 AUDIO
    TITLE "0:"
    INDEX 01 00:52:68
  TRACK 44 AUDIO
    TITLE "20:cjc171_14322"
    INDEX 01 00:53:32
  TRACK 45 AUDIO
    TITLE "0:"
    INDEX 01 00:55:39
  TRACK 46 AUDIO
    TITLE "21:cjc171_14323"
    INDEX 01 00:56:32
  TRACK 47 AUDIO
    TITLE "0:"
    INDEX 01 00:59:05
  TRACK 48 AUDIO
    TITLE "22:cjc171_14324"
    INDEX 01 00:59:44
  TRACK 49 AUDIO
    TITLE "0:"
    INDEX 01 01:01:53
  TRACK 50 AUDIO
    TITLE "23:cjc171_14325"
    INDEX 01 01:02:09
  TRACK 51 AUDIO
    TITLE "0:"
    INDEX 01 01:04:16
  TRACK 52 AUDIO
    TITLE "19:cjc171_14326"
    INDEX 01 01:05:14
  TRACK 53 AUDIO
    TITLE "0:"
    INDEX 01 01:06:27
  TRACK 54 AUDIO
    TITLE "20:cjc171_14327"
    INDEX 01 01:06:68
  TRACK 55 AUDIO
    TITLE "0:"
    INDEX 01 01:08:57
  TRACK 56 AUDIO
    TITLE "21:cjc171_14328"
    INDEX 01 01:09:58
  TRACK 57 AUDIO
    TITLE "0:"
    INDEX 01 01:11:59
  TRACK 58 AUDIO
    TITLE "22:cjc171_14329"
    INDEX 01 01:12:24
  TRACK 59 AUDIO
    TITLE "0:"
    INDEX 01 01:14:20
  TRACK 60 AUDIO
    TITLE "23:cjc171_14330"
    INDEX 01 01:14:52
  TRACK 61 AUDIO
    TITLE "0:"
    INDEX 01 01:16:49
  TRACK 62 AUDIO
    TITLE "19:cjc171_14331"
    INDEX 01 01:17:50
  TRACK 63 AUDIO
    TITLE "0:"
    INDEX 01 01:19:04
  TRACK 64 AUDIO
    TITLE "20:cjc171_14332"
    INDEX 01 01:19:39
  TRACK 65 AUDIO
    TITLE "0:"
    INDEX 01 01:20:58
  TRACK 66 AUDIO
    TITLE "21:cjc171_14333"
    INDEX 01 01:21:60
  TRACK 67 AUDIO
    TITLE "0:"
    INDEX 01 01:23:25
  TRACK 68 AUDIO
    TITLE "22:cjc171_14334"
    INDEX 01 01:23:61
  TRACK 69 AUDIO
    TITLE "0:"
    INDEX 01 01:25:63
  TRACK 70 AUDIO
    TITLE "23:cjc171_14335"
    INDEX 01 01:26:10
  TRACK 71 AUDIO
    TITLE "0:"
    INDEX 01 01:28:13
  TRACK 72 AUDIO
    TITLE "19:cjc171_14336"
    INDEX 01 01:29:12
  TRACK 73 AUDIO
    TITLE "0:"
    INDEX 01 01:30:57
  TRACK 74 AUDIO
    TITLE "20:cjc171_14337"
    INDEX 01 01:31:17
  TRACK 75 AUDIO
    TITLE "0:"
    INDEX 01 01:33:08
  TRACK 76 AUDIO
    TITLE "21:cjc171_14338"
    INDEX 01 01:34:07
  TRACK 77 AUDIO
    TITLE "0:"
    INDEX 01 01:35:50
  TRACK 78 AUDIO
    TITLE "22:cjc171_14339"
    INDEX 01 01:36:10
  TRACK 79 AUDIO
    TITLE "0:"
    INDEX 01 01:38:48
  TRACK 80 AUDIO
    TITLE "23:cjc171_14340"
    INDEX 01 01:38:68
  TRACK 81 AUDIO
    TITLE "0:"
    INDEX 01 01:41:31
  TRACK 82 AUDIO
    TITLE "19:cjc171_14341"
    INDEX 01 01:42:31
  TRACK 83 AUDIO
    TITLE "0:"
    INDEX 01 01:43:40
  TRACK 84 AUDIO
    TITLE "20:cjc171_14342"
    INDEX 01 01:44:06
  TRACK 85 AUDIO
    TITLE "0:"
    INDEX 01 01:45:17
  TRACK 86 AUDIO
    TITLE "21:cjc171_14343"
    INDEX 01 01:46:17
  TRACK 87 AUDIO
    TITLE "0:"
    INDEX 01 01:47:57
  TRACK 88 AUDIO
    TITLE "22:cjc171_14344"
    INDEX 01 01:48:21
  TRACK 89 AUDIO
    TITLE "0:"
    INDEX 01 01:50:01
  TRACK 90 AUDIO
    TITLE "23:cjc171_14345"
    INDEX 01 01:50:32
  TRACK 91 AUDIO
    TITLE "0:"
    INDEX 01 01:52:11
  TRACK 92 AUDIO
    TITLE "19:cjc171_14346"
    INDEX 01 01:53:17
  TRACK 93 AUDIO
    TITLE "0:"
    INDEX 01 01:54:47
  TRACK 94 AUDIO
    TITLE "20:cjc171_14347"
    INDEX 01 01:55:12
  TRACK 95 AUDIO
    TITLE "0:"
    INDEX 01 01:57:44
  TRACK 96 AUDIO
    TITLE "21:cjc171_14348"
    INDEX 01 01:58:43
  TRACK 97 AUDIO
    TITLE "0:"
    INDEX 01 02:00:19
  TRACK 98 AUDIO
    TITLE "22:cjc171_14349"
    INDEX 01 02:00:54
  TRACK 99 AUDIO
    TITLE "0:"
    INDEX 01 02:02:66
  TRACK 100 AUDIO
    TITLE "23:cjc171_14350"
    INDEX 01 02:03:23
  TRACK 101 AUDIO
    TITLE "0:"
    INDEX 01 02:05:35
  TRACK 102 AUDIO
    TITLE "19:cjc171_14351"
    INDEX 01 02:06:35
  TRACK 103 AUDIO
    TITLE "0:"
    INDEX 01 02:07:50
  TRACK 104 AUDIO
    TITLE "20:cjc171_14352"
    INDEX 01 02:08:06
  TRACK 105 AUDIO
    TITLE "0:"
    INDEX 01 02:09:27
  TRACK 106 AUDIO
    TITLE "21:cjc171_14353"
    INDEX 01 02:10:25
  TRACK 107 AUDIO
    TITLE "0:"
    INDEX 01 02:12:06
  TRACK 108 AUDIO
    TITLE "22:cjc171_14354"
    INDEX 01 02:12:39
  TRACK 109 AUDIO
    TITLE "0:"
    INDEX 01 02:14:38
  TRACK 110 AUDIO
    TITLE "23:cjc171_14355"
    INDEX 01 02:14:54
  TRACK 111 AUDIO
    TITLE "0:"
    INDEX 01 02:16:53
  TRACK 112 AUDIO
    TITLE "19:cjc171_14356"
    INDEX 01 02:17:45
  TRACK 113 AUDIO
    TITLE "0:"
    INDEX 01 02:18:64
  TRACK 114 AUDIO
    TITLE "20:cjc171_14357"
    INDEX 01 02:19:24
  TRACK 115 AUDIO
    TITLE "0:"
    INDEX 01 02:21:60
  TRACK 116 AUDIO
    TITLE "21:cjc171_14358"
    INDEX 01 02:22:59
  TRACK 117 AUDIO
    TITLE "0:"
    INDEX 01 02:24:41
  TRACK 118 AUDIO
    TITLE "22:cjc171_14359"
    INDEX 01 02:24:74
  TRACK 119 AUDIO
    TITLE "0:"
    INDEX 01 02:26:75
  TRACK 120 AUDIO
    TITLE "23:cjc171_14360"
    INDEX 01 02:27:17
  TRACK 121 AUDIO
    TITLE "0:"
    INDEX 01 02:29:16
  TRACK 122 AUDIO
    TITLE "19:cjc171_14361"
    INDEX 01 02:30:14
  TRACK 123 AUDIO
    TITLE "0:"
    INDEX 01 02:31:43
  TRACK 124 AUDIO
    TITLE "20:cjc171_14362"
    INDEX 01 02:32:05
  TRACK 125 AUDIO
    TITLE "0:"
    INDEX 01 02:33:61
  TRACK 126 AUDIO
    TITLE "21:cjc171_14363"
    INDEX 01 02:34:61
  TRACK 127 AUDIO
    TITLE "0:"
    INDEX 01 02:38:02
  TRACK 128 AUDIO
    TITLE "22:cjc171_14364"
    INDEX 01 02:38:45
  TRACK 129 AUDIO
    TITLE "0:"
    INDEX 01 02:40:71
  TRACK 130 AUDIO
    TITLE "23:cjc171_14365"
    INDEX 01 02:41:27
  TRACK 131 AUDIO
    TITLE "0:"
    INDEX 01 02:43:56
  TRACK 132 AUDIO
    TITLE "19:cjc171_14366"
    INDEX 01 02:44:63
  TRACK 133 AUDIO
    TITLE "0:"
    INDEX 01 02:46:15
  TRACK 134 AUDIO
    TITLE "20:cjc171_14367"
    INDEX 01 02:46:54
  TRACK 135 AUDIO
    TITLE "0:"
    INDEX 01 02:49:15
  TRACK 136 AUDIO
    TITLE "21:cjc171_14368"
    INDEX 01 02:50:13
  TRACK 137 AUDIO
    TITLE "0:"
    INDEX 01 02:52:27
  TRACK 138 AUDIO
    TITLE "22:cjc171_14369"
    INDEX 01 02:52:66
  TRACK 139 AUDIO
    TITLE "0:"
    INDEX 01 02:54:73
  TRACK 140 AUDIO
    TITLE "23:cjc171_14370"
    INDEX 01 02:55:28
  TRACK 141 AUDIO
    TITLE "0:"
    INDEX 01 02:57:34
  TRACK 142 AUDIO
    TITLE "19:cjc171_14371"
    INDEX 01 02:58:32
  TRACK 143 AUDIO
    TITLE "0:"
    INDEX 01 02:59:49
  TRACK 144 AUDIO
    TITLE "20:cjc171_14372"
    INDEX 01 03:00:09
  TRACK 145 AUDIO
    TITLE "0:"
    INDEX 01 03:02:43
  TRACK 146 AUDIO
    TITLE "21:cjc171_14373"
    INDEX 01 03:03:45
  TRACK 147 AUDIO
    TITLE "0:"
    INDEX 01 03:06:33
  TRACK 148 AUDIO
    TITLE "22:cjc171_14374"
    INDEX 01 03:06:66
  TRACK 149 AUDIO
    TITLE "0:"
    INDEX 01 03:09:26
  TRACK 150 AUDIO
    TITLE "23:cjc171_14375"
    INDEX 01 03:09:51
  TRACK 151 AUDIO
    TITLE "0:"
    INDEX 01 03:12:08
  TRACK 152 AUDIO
    TITLE "19:cjc171_14376"
    INDEX 01 03:13:12
  TRACK 153 AUDIO
    TITLE "0:"
    INDEX 01 03:14:21
  TRACK 154 AUDIO
    TITLE "20:cjc171_14377"
    INDEX 01 03:14:54
  TRACK 155 AUDIO
    TITLE "0:"
    INDEX 01 03:16:12
  TRACK 156 AUDIO
    TITLE "21:cjc171_14378"
    INDEX 01 03:17:11
  TRACK 157 AUDIO
    TITLE "0:"
    INDEX 01 03:19:32
  TRACK 158 AUDIO
    TITLE "22:cjc171_14379"
    INDEX 01 03:19:67
  TRACK 159 AUDIO
    TITLE "0:"
    INDEX 01 03:21:70
  TRACK 160 AUDIO
    TITLE "23:cjc171_14380"
    INDEX 01 03:22:20
  TRACK 161 AUDIO
    TITLE "0:"
    INDEX 01 03:24:21
  TRACK 162 AUDIO
    TITLE "19:cjc171_14381"
    INDEX 01 03:25:25
  TRACK 163 AUDIO
    TITLE "0:"
    INDEX 01 03:26:48
  TRACK 164 AUDIO
    TITLE "20:cjc171_14382"
    INDEX 01 03:27:12
  TRACK 165 AUDIO
    TITLE "0:"
    INDEX 01 03:29:48
  TRACK 166 AUDIO
    TITLE "21:cjc171_14383"
    INDEX 01 03:30:47
  TRACK 167 AUDIO
    TITLE "0:"
    INDEX 01 03:32:48
  TRACK 168 AUDIO
    TITLE "22:cjc171_14384"
    INDEX 01 03:33:12
  TRACK 169 AUDIO
    TITLE "0:"
    INDEX 01 03:35:52
  TRACK 170 AUDIO
    TITLE "23:cjc171_14385"
    INDEX 01 03:36:07
  TRACK 171 AUDIO
    TITLE "0:"
    INDEX 01 03:38:47
  TRACK 172 AUDIO
    TITLE "19:cjc171_14386"
    INDEX 01 03:39:52
  TRACK 173 AUDIO
    TITLE "0:"
    INDEX 01 03:40:67
  TRACK 174 AUDIO
    TITLE "20:cjc171_14387"
    INDEX 01 03:41:33
  TRACK 175 AUDIO
    TITLE "0:"
    INDEX 01 03:44:20
  TRACK 176 AUDIO
    TITLE "21:cjc171_14388"
    INDEX 01 03:45:20
  TRACK 177 AUDIO
    TITLE "0:"
    INDEX 01 03:47:09
  TRACK 178 AUDIO
    TITLE "22:cjc171_14389"
    INDEX 01 03:47:50
  TRACK 179 AUDIO
    TITLE "0:"
    INDEX 01 03:49:41
  TRACK 180 AUDIO
    TITLE "23:cjc171_14390"
    INDEX 01 03:49:70
  TRACK 181 AUDIO
    TITLE "0:"
    INDEX 01 03:51:61
  TRACK 182 AUDIO
    TITLE "19:cjc171_14391"
    INDEX 01 03:52:61
  TRACK 183 AUDIO
    TITLE "0:"
    INDEX 01 03:53:68
  TRACK 184 AUDIO
    TITLE "20:cjc171_14392"
    INDEX 01 03:54:26
  TRACK 185 AUDIO
    TITLE "0:"
    INDEX 01 03:57:07
  TRACK 186 AUDIO
    TITLE "21:cjc171_14393"
    INDEX 01 03:58:10
  TRACK 187 AUDIO
    TITLE "0:"
    INDEX 01 04:00:52
  TRACK 188 AUDIO
    TITLE "22:cjc171_14394"
    INDEX 01 04:01:15
  TRACK 189 AUDIO
    TITLE "0:"
    INDEX 01 04:03:43
  TRACK 190 AUDIO
    TITLE "23:cjc171_14395"
    INDEX 01 04:03:64
  TRACK 191 AUDIO
    TITLE "0:"
    INDEX 01 04:06:20
  TRACK 192 AUDIO
    TITLE "19:cjc171_14396"
    INDEX 01 04:07:17
  TRACK 193 AUDIO
    TITLE "0:"
    INDEX 01 04:08:15
  TRACK 194 AUDIO
    TITLE "20:cjc171_14397"
    INDEX 01 04:08:50
  TRACK 195 AUDIO
    TITLE "0:"
    INDEX 01 04:11:40
  TRACK 196 AUDIO
    TITLE "21:cjc171_14398"
    INDEX 01 04:12:40
  TRACK 197 AUDIO
    TITLE "0:"
    INDEX 01 04:14:68
  TRACK 198 AUDIO
    TITLE "22:cjc171_14399"
    INDEX 01 04:15:27
  TRACK 199 AUDIO
    TITLE "0:"
    INDEX 01 04:17:51
  TRACK 200 AUDIO
    TITLE "23:cjc171_14400"
    INDEX 01 04:17:69
  TRACK 201 AUDIO
    TITLE "0:"
    INDEX 01 04:20:18
